<?xml version="1.0" encoding="UTF-8"?>
<svg id="Layer_1" xmlns="http://www.w3.org/2000/svg" version="1.1" viewBox="0 0 389.3 393.1">
  <!-- Generator: Adobe Illustrator 29.0.1, SVG Export Plug-In . SVG Version: 2.1.0 Build 192)  -->
  <defs>
    <style>
      .st0, .st1, .st2, .st3, .st4, .st5, .st6, .st7 {
        stroke: #34324c;
        stroke-miterlimit: 10;
      }

      .st0, .st7 {
        stroke-width: 7.5px;
      }

      .st0, .st8 {
        fill: #34324c;
      }

      .st1 {
        stroke-width: 7px;
      }

      .st1, .st2, .st6, .st7 {
        fill: none;
      }

      .st2, .st3 {
        stroke-width: 25px;
      }

      .st3, .st4, .st5 {
        fill: #fff;
      }

      .st4, .st6 {
        stroke-width: 20px;
      }

      .st5 {
        stroke-width: 15px;
      }

      .st9 {
        fill: #8ccd10;
      }
    </style>
  </defs>
  <g>
    <circle class="st4" cx="65" cy="65" r="55"/>
    <circle class="st4" cx="324.3" cy="65" r="55"/>
    <circle class="st0" cx="65" cy="65" r="20"/>
    <circle class="st0" cx="324.3" cy="65" r="20"/>
    <ellipse class="st3" cx="195" cy="205.6" rx="169.6" ry="175"/>
    <g>
      <circle class="st6" cx="195" cy="223.4" r="62.5"/>
      <g>
        <path class="st2" d="M195,230.7c0,8.2,0,14.9,0,14.9s0-6.7,0-14.9,0-14.9,0-14.9,0,6.7,0,14.9Z"/>
        <g>
          <path class="st8" d="M201.5,223.4c-3.8,4-9.9,4-13.7,0l-20.1-21.4c-3.8-4-2.3-7.3,3.2-7.3h47.4c5.5,0,6.9,3.2,3.2,7.2l-20,21.4Z"/>
          <path class="st1" d="M201.5,223.4c-3.8,4-9.9,4-13.7,0l-20.1-21.4c-3.8-4-2.3-7.3,3.2-7.3h47.4c5.5,0,6.9,3.2,3.2,7.2l-20,21.4Z"/>
        </g>
      </g>
    </g>
    <rect class="st5" x="17.5" y="245.5" width="350" height="96.6" rx="48.2" ry="48.2"/>
    <g>
      <line class="st7" x1="325.8" y1="305.9" x2="338.5" y2="318.9"/>
      <circle class="st7" cx="316.9" cy="293.8" r="15"/>
    </g>
    <circle class="st0" cx="260" cy="136.2" r="15"/>
    <circle class="st0" cx="126.5" cy="136.2" r="15"/>
  </g>
  <g>
    <path class="st9" d="M124.5,312.4h-8l-14.4-22c-.4-.7-.8-1.2-1.1-1.7-.3-.5-.5-.9-.7-1.2h0c0,.6.1,1.4.1,2.3,0,.9,0,2.1,0,3.3v19.2h-7.4v-35h8.5l13.9,21.3c.3.5.6.9.9,1.4.3.5.6,1,.8,1.4h0c0-.4-.1-1-.1-1.8,0-.8,0-1.8,0-3v-19.4h7.4v35Z"/>
    <path class="st8" d="M128.8,312.4l12.7-35h9.4l12.5,35h-8.6l-2.4-7.3h-12.7l-2.3,7.3h-8.5ZM141.3,298.9h9.2l-3.9-12.2c-.1-.5-.3-.9-.4-1.2,0-.3-.2-.8-.2-1.3h-.2c0,.5-.2.9-.3,1.3,0,.4-.2.8-.4,1.2l-3.9,12.3Z"/>
    <path class="st8" d="M193.4,277.4l-12.1,35h-8.9l-11.9-35h8.5l7.3,24.4c.2.7.3,1.3.5,1.9.1.6.2,1.1.2,1.6h.1c0-.5.2-1.1.3-1.7.1-.6.3-1.2.5-1.9l7.3-24.3h8.3Z"/>
    <path class="st8" d="M197.6,312.4v-35h12.7c3.9,0,6.9.7,9,2.2,2.1,1.5,3.1,3.6,3.1,6.3s-.6,3.5-1.7,4.9c-1.1,1.4-2.6,2.4-4.3,2.9h0c2.2.4,4,1.3,5.4,2.8,1.3,1.5,2,3.3,2,5.4,0,3.2-1.1,5.8-3.4,7.6-2.3,1.9-5.4,2.8-9.4,2.8h-13.5ZM205.5,283.2v8.5h3.5c1.6,0,2.9-.4,3.8-1.2.9-.8,1.4-1.9,1.4-3.2s-.5-2.4-1.4-3.1c-1-.7-2.4-1-4.3-1h-3ZM205.5,297.6v9h4.3c1.8,0,3.3-.4,4.3-1.3,1-.8,1.5-2,1.5-3.5s-.5-2.4-1.5-3.1c-1-.8-2.4-1.1-4.3-1.1h-4.3Z"/>
    <path class="st9" d="M225.9,312.4l12.7-35h9.4l12.5,35h-8.6l-2.4-7.3h-12.7l-2.3,7.3h-8.5ZM237.5,274.1c-1.1,0-2-.3-2.7-1-.7-.6-1-1.4-1-2.4s.4-1.8,1.1-2.4c.7-.6,1.6-.9,2.7-.9s2,.3,2.7.9c.7.6,1,1.4,1,2.4s-.3,1.8-1,2.4c-.7.6-1.6.9-2.7.9ZM238.5,298.9h9.2l-3.9-12.2c-.1-.5-.3-.9-.4-1.2,0-.3-.2-.8-.2-1.3h-.2c0,.5-.2.9-.3,1.3,0,.4-.2.8-.4,1.2l-3.9,12.3ZM248.7,274.1c-1.1,0-2-.3-2.7-1-.7-.6-1-1.4-1-2.4s.3-1.8,1-2.4c.7-.6,1.6-.9,2.7-.9s2,.3,2.7.9c.7.6,1.1,1.4,1.1,2.4s-.4,1.8-1,2.4c-.7.6-1.6.9-2.7.9Z"/>
    <path class="st9" d="M293.3,312.4h-8.9l-4.7-8.6c-.7-1.4-1.5-2.5-2.3-3.2-.8-.7-1.6-1.1-2.6-1.2h-2.1v13h-7.9v-35h12.5c4.2,0,7.4.8,9.6,2.5,2.1,1.7,3.2,4.1,3.2,7.4s-.7,4.3-2.1,6c-1.4,1.7-3.2,2.9-5.6,3.7h0c1,.4,2,1.1,2.9,2.1.9,1,1.7,2.1,2.3,3.2l5.6,10ZM272.7,283.3v10.1h3.4c1.7,0,3.1-.5,4.1-1.5s1.5-2.3,1.5-3.8-.5-2.8-1.4-3.6c-.9-.8-2.3-1.2-4.1-1.2h-3.6Z"/>
  </g>
  <rect class="st8" x="74.6" y="301.3" width="11.1" height="11.1"/>
</svg>