<?xml version="1.0" encoding="UTF-8"?>
<svg id="Layer_1" xmlns="http://www.w3.org/2000/svg" version="1.1" viewBox="0 0 1205.8 272.5">
  <!-- Generator: Adobe Illustrator 29.0.1, SVG Export Plug-In . SVG Version: 2.1.0 Build 192)  -->
  <defs>
    <style>
      .st0, .st1, .st2, .st3, .st4, .st5, .st6, .st7 {
        stroke: #34324c;
        stroke-miterlimit: 10;
      }

      .st0, .st7 {
        stroke-width: 7.5px;
      }

      .st0, .st8 {
        fill: #34324c;
      }

      .st1 {
        stroke-width: 7px;
      }

      .st1, .st2, .st6, .st7 {
        fill: none;
      }

      .st2, .st3 {
        stroke-width: 25px;
      }

      .st3, .st4, .st5 {
        fill: #fff;
      }

      .st4, .st6 {
        stroke-width: 20px;
      }

      .st5 {
        stroke-width: 15px;
      }

      .st9 {
        fill: #8ccd10;
      }
    </style>
  </defs>
  <g>
    <circle class="st4" cx="983.8" cy="47.1" r="37.1"/>
    <circle class="st4" cx="1158.7" cy="47.1" r="37.1"/>
    <circle class="st0" cx="983.8" cy="47.1" r="13.5"/>
    <circle class="st0" cx="1158.7" cy="47.1" r="13.5"/>
    <ellipse class="st3" cx="1071.4" cy="141.9" rx="114.4" ry="118.1"/>
    <g>
      <circle class="st6" cx="1071.4" cy="153.9" r="42.2"/>
      <g>
        <path class="st2" d="M1071.4,158.9c0,5.5,0,10,0,10s0-4.5,0-10,0-10,0-10,0,4.5,0,10Z"/>
        <g>
          <path class="st8" d="M1078,151.5c-3.8,4-9.9,4-13.7,0l-9.1-9.7c-3.8-4-2.3-7.3,3.2-7.3h25.5c5.5,0,6.9,3.2,3.2,7.3l-9,9.7Z"/>
          <path class="st1" d="M1078,151.5c-3.8,4-9.9,4-13.7,0l-9.1-9.7c-3.8-4-2.3-7.3,3.2-7.3h25.5c5.5,0,6.9,3.2,3.2,7.3l-9,9.7Z"/>
        </g>
      </g>
    </g>
    <rect class="st5" x="951.7" y="168.9" width="236.1" height="65.1" rx="32.6" ry="32.6"/>
    <g>
      <line class="st7" x1="1159.7" y1="209.6" x2="1168.2" y2="218.4"/>
      <circle class="st7" cx="1153.6" cy="201.5" r="10.1"/>
    </g>
    <circle class="st0" cx="1115.3" cy="95.1" r="10.1"/>
    <circle class="st0" cx="1025.3" cy="95.1" r="10.1"/>
  </g>
  <g>
    <g>
      <path class="st9" d="M201.9,200.9h-33.1l-60.1-91.6c-1.8-2.7-3.3-5.1-4.5-7.1-1.2-2-2.2-3.7-2.8-5h-.4c.3,2.6.5,5.8.6,9.8.1,3.9.2,8.5.2,13.8v80.1h-31V55.2h35.4l57.8,88.7c1.3,2,2.6,3.9,3.8,5.9,1.3,2,2.4,4,3.5,5.9h.4c-.3-1.7-.5-4.2-.6-7.6-.1-3.4-.2-7.5-.2-12.4V55.2h31v145.7Z"/>
      <path class="st9" d="M318.7,200.9l-4.2-32.4h-52.2l-17.1,32.4h-37l84-145.7h39.1l20.8,145.7h-33.5ZM306.8,94.1c0-1.1-.1-2.3-.2-3.6,0-1.3,0-2.6,0-3.8,0-1.2,0-2.3.2-3.3,0-1,.1-1.7.2-2.2h-.6c-.1.6-.4,1.4-.7,2.3-.3,1-.7,2-1.2,3.1-.4,1.1-.9,2.3-1.5,3.5-.6,1.2-1.2,2.4-1.8,3.6l-26.6,49.6h37.5l-5.3-49.2Z"/>
      <path class="st9" d="M426.3,200.9h-36.2l-18.7-145.7h33.6l9.9,100.8c.2,2.4.3,4.8.4,7.3,0,2.5-.2,4.8-.6,6.9h.8c.6-2,1.4-4.2,2.4-6.6,1-2.4,2.2-5.1,3.6-7.9l50.6-100.4h36.2l-82,145.7Z"/>
      <path class="st9" d="M621.7,88.1c0,4.5-.7,8.8-2.2,12.7-1.5,3.9-3.7,7.5-6.7,10.6-2.9,3.2-6.6,5.8-10.9,8.1-4.3,2.2-9.4,3.9-15.1,5v.4c4.6.7,8.6,1.9,12.1,3.7,3.5,1.8,6.4,4,8.7,6.7,2.3,2.6,4.1,5.6,5.2,8.9,1.2,3.3,1.7,6.9,1.7,10.7,0,6.6-1.3,12.7-3.9,18.2-2.6,5.6-6.4,10.5-11.6,14.6-5.1,4.1-11.6,7.4-19.3,9.7-7.7,2.3-16.7,3.5-27,3.5h-57.8l31-145.7h51.6c7.9,0,14.7.8,20.3,2.5,5.6,1.7,10.1,4,13.7,6.9,3.5,2.9,6.1,6.4,7.7,10.5,1.6,4,2.4,8.4,2.4,13.1ZM579.8,155c0-5.1-1.8-9.1-5.3-12.2-3.5-3-8.8-4.6-15.8-4.6h-17.3l-8.3,38.4h18.3c5,0,9.3-.6,12.9-1.7,3.6-1.1,6.5-2.7,8.8-4.6,2.3-2,3.9-4.3,5-6.9,1.1-2.6,1.6-5.4,1.6-8.5ZM587.2,94.5c0-2.4-.4-4.5-1.1-6.4-.7-1.9-1.8-3.4-3.4-4.7-1.6-1.3-3.6-2.3-6.1-3-2.5-.7-5.6-1.1-9.1-1.1h-13.5l-7.5,34.6h15.4c3.9,0,7.5-.5,10.6-1.4,3.1-.9,5.8-2.2,8-3.9,2.2-1.7,3.9-3.7,5-6.1,1.2-2.4,1.7-5.1,1.7-8Z"/>
      <path class="st9" d="M625.9,200.9l53-145.7h38.9l51.8,145.7h-35.8l-9.9-30.4h-52.8l-9.8,30.4h-35.6ZM674.4,41.6c-4.6,0-8.4-1.3-11.3-4-2.9-2.7-4.4-6-4.4-9.9s1.5-7.4,4.5-10c3-2.6,6.7-3.9,11.2-3.9s8.3,1.3,11.2,3.9c2.9,2.6,4.3,5.9,4.3,10s-1.4,7.5-4.3,10.1c-2.9,2.6-6.6,3.9-11.2,3.9ZM678.3,144.9h38.1l-16.1-50.6c-.6-2-1.1-3.8-1.5-5.2-.4-1.4-.7-3.3-1-5.5h-.8c-.3,2-.7,3.8-1.1,5.3-.4,1.5-.9,3.2-1.5,5l-16.3,51ZM720.9,41.6c-4.5,0-8.3-1.3-11.2-4-2.9-2.6-4.4-6-4.4-10s1.5-7.5,4.4-10.1c2.9-2.6,6.6-3.9,11.2-3.9s8.3,1.3,11.2,3.9c2.9,2.6,4.4,5.9,4.4,10s-1.5,7.4-4.4,10c-2.9,2.6-6.7,3.9-11.3,3.9Z"/>
      <path class="st9" d="M906.3,200.9h-37.1l-19.4-35.9c-3.1-5.8-6.2-10.2-9.4-13.2-3.1-3-6.8-4.7-10.8-5.1h-8.8v54.2h-32.8V55.2h52c17.7,0,30.9,3.4,39.8,10.3,8.8,6.9,13.3,17.2,13.3,30.9s-2.8,18-8.5,25c-5.7,7-13.5,12.2-23.4,15.5v.4c4.3,1.4,8.4,4.2,12.1,8.5,3.8,4.3,7,8.8,9.6,13.5l23.5,41.5ZM820.7,79.7v42.2h14.2c7.1,0,12.8-2.1,17.1-6.4,4.3-4.3,6.4-9.6,6.4-15.9s-1.9-11.6-5.7-14.9c-3.8-3.3-9.5-5-17.2-5h-14.8Z"/>
    </g>
    <rect class="st8" y="154.5" width="46.4" height="46.4"/>
  </g>
</svg>