<svg xmlns="http://www.w3.org/2000/svg" width="37mm" height="37mm" version="1.1" viewBox="0 0 37 37" fill_color="black"><path d="M4,4H5V5H4zM5,4H6V5H5zM6,4H7V5H6zM7,4H8V5H7zM8,4H9V5H8zM9,4H10V5H9zM10,4H11V5H10zM14,4H15V5H14zM15,4H16V5H15zM16,4H17V5H16zM17,4H18V5H17zM18,4H19V5H18zM20,4H21V5H20zM22,4H23V5H22zM23,4H24V5H23zM24,4H25V5H24zM26,4H27V5H26zM27,4H28V5H27zM28,4H29V5H28zM29,4H30V5H29zM30,4H31V5H30zM31,4H32V5H31zM32,4H33V5H32zM4,5H5V6H4zM10,5H11V6H10zM12,5H13V6H12zM13,5H14V6H13zM14,5H15V6H14zM16,5H17V6H16zM18,5H19V6H18zM19,5H20V6H19zM21,5H22V6H21zM23,5H24V6H23zM26,5H27V6H26zM32,5H33V6H32zM4,6H5V7H4zM6,6H7V7H6zM7,6H8V7H7zM8,6H9V7H8zM10,6H11V7H10zM17,6H18V7H17zM21,6H22V7H21zM22,6H23V7H22zM24,6H25V7H24zM26,6H27V7H26zM28,6H29V7H28zM29,6H30V7H29zM30,6H31V7H30zM32,6H33V7H32zM4,7H5V8H4zM6,7H7V8H6zM7,7H8V8H7zM8,7H9V8H8zM10,7H11V8H10zM13,7H14V8H13zM15,7H16V8H15zM16,7H17V8H16zM23,7H24V8H23zM24,7H25V8H24zM26,7H27V8H26zM28,7H29V8H28zM29,7H30V8H29zM30,7H31V8H30zM32,7H33V8H32zM4,8H5V9H4zM6,8H7V9H6zM7,8H8V9H7zM8,8H9V9H8zM10,8H11V9H10zM13,8H14V9H13zM14,8H15V9H14zM15,8H16V9H15zM18,8H19V9H18zM19,8H20V9H19zM20,8H21V9H20zM21,8H22V9H21zM22,8H23V9H22zM26,8H27V9H26zM28,8H29V9H28zM29,8H30V9H29zM30,8H31V9H30zM32,8H33V9H32zM4,9H5V10H4zM10,9H11V10H10zM12,9H13V10H12zM13,9H14V10H13zM14,9H15V10H14zM16,9H17V10H16zM18,9H19V10H18zM19,9H20V10H19zM20,9H21V10H20zM21,9H22V10H21zM23,9H24V10H23zM26,9H27V10H26zM32,9H33V10H32zM4,10H5V11H4zM5,10H6V11H5zM6,10H7V11H6zM7,10H8V11H7zM8,10H9V11H8zM9,10H10V11H9zM10,10H11V11H10zM12,10H13V11H12zM14,10H15V11H14zM16,10H17V11H16zM18,10H19V11H18zM20,10H21V11H20zM22,10H23V11H22zM24,10H25V11H24zM26,10H27V11H26zM27,10H28V11H27zM28,10H29V11H28zM29,10H30V11H29zM30,10H31V11H30zM31,10H32V11H31zM32,10H33V11H32zM12,11H13V12H12zM13,11H14V12H13zM15,11H16V12H15zM17,11H18V12H17zM20,11H21V12H20zM23,11H24V12H23zM24,11H25V12H24zM8,12H9V13H8zM9,12H10V13H9zM10,12H11V13H10zM11,12H12V13H11zM13,12H14V13H13zM14,12H15V13H14zM15,12H16V13H15zM17,12H18V13H17zM18,12H19V13H18zM19,12H20V13H19zM23,12H24V13H23zM24,12H25V13H24zM26,12H27V13H26zM27,12H28V13H27zM31,12H32V13H31zM5,13H6V14H5zM6,13H7V14H6zM8,13H9V14H8zM12,13H13V14H12zM14,13H15V14H14zM18,13H19V14H18zM19,13H20V14H19zM22,13H23V14H22zM26,13H27V14H26zM27,13H28V14H27zM28,13H29V14H28zM29,13H30V14H29zM31,13H32V14H31zM32,13H33V14H32zM5,14H6V15H5zM6,14H7V15H6zM9,14H10V15H9zM10,14H11V15H10zM12,14H13V15H12zM17,14H18V15H17zM18,14H19V15H18zM20,14H21V15H20zM21,14H22V15H21zM22,14H23V15H22zM24,14H25V15H24zM25,14H26V15H25zM27,14H28V15H27zM32,14H33V15H32zM5,15H6V16H5zM6,15H7V16H6zM8,15H9V16H8zM9,15H10V16H9zM16,15H17V16H16zM21,15H22V16H21zM22,15H23V16H22zM23,15H24V16H23zM24,15H25V16H24zM25,15H26V16H25zM28,15H29V16H28zM29,15H30V16H29zM31,15H32V16H31zM32,15H33V16H32zM5,16H6V17H5zM6,16H7V17H6zM7,16H8V17H7zM8,16H9V17H8zM10,16H11V17H10zM13,16H14V17H13zM16,16H17V17H16zM17,16H18V17H17zM18,16H19V17H18zM20,16H21V17H20zM27,16H28V17H27zM29,16H30V17H29zM32,16H33V17H32zM6,17H7V18H6zM7,17H8V18H7zM9,17H10V18H9zM19,17H20V18H19zM22,17H23V18H22zM26,17H27V18H26zM28,17H29V18H28zM30,17H31V18H30zM31,17H32V18H31zM32,17H33V18H32zM4,18H5V19H4zM7,18H8V19H7zM10,18H11V19H10zM12,18H13V19H12zM14,18H15V19H14zM16,18H17V19H16zM18,18H19V19H18zM19,18H20V19H19zM20,18H21V19H20zM21,18H22V19H21zM22,18H23V19H22zM24,18H25V19H24zM26,18H27V19H26zM28,18H29V19H28zM32,18H33V19H32zM5,19H6V20H5zM8,19H9V20H8zM9,19H10V20H9zM13,19H14V20H13zM14,19H15V20H14zM16,19H17V20H16zM20,19H21V20H20zM21,19H22V20H21zM23,19H24V20H23zM24,19H25V20H24zM26,19H27V20H26zM27,19H28V20H27zM29,19H30V20H29zM32,19H33V20H32zM4,20H5V21H4zM9,20H10V21H9zM10,20H11V21H10zM11,20H12V21H11zM13,20H14V21H13zM15,20H16V21H15zM17,20H18V21H17zM18,20H19V21H18zM19,20H20V21H19zM21,20H22V21H21zM23,20H24V21H23zM24,20H25V21H24zM31,20H32V21H31zM4,21H5V22H4zM5,21H6V22H5zM7,21H8V22H7zM8,21H9V22H8zM11,21H12V22H11zM12,21H13V22H12zM13,21H14V22H13zM14,21H15V22H14zM15,21H16V22H15zM19,21H20V22H19zM26,21H27V22H26zM27,21H28V22H27zM28,21H29V22H28zM29,21H30V22H29zM30,21H31V22H30zM32,21H33V22H32zM8,22H9V23H8zM9,22H10V23H9zM10,22H11V23H10zM13,22H14V23H13zM14,22H15V23H14zM16,22H17V23H16zM19,22H20V23H19zM21,22H22V23H21zM22,22H23V23H22zM24,22H25V23H24zM27,22H28V23H27zM29,22H30V23H29zM32,22H33V23H32zM7,23H8V24H7zM8,23H9V24H8zM11,23H12V24H11zM13,23H14V24H13zM14,23H15V24H14zM15,23H16V24H15zM16,23H17V24H16zM22,23H23V24H22zM23,23H24V24H23zM27,23H28V24H27zM29,23H30V24H29zM4,24H5V25H4zM5,24H6V25H5zM6,24H7V25H6zM9,24H10V25H9zM10,24H11V25H10zM12,24H13V25H12zM16,24H17V25H16zM17,24H18V25H17zM18,24H19V25H18zM21,24H22V25H21zM23,24H24V25H23zM24,24H25V25H24zM25,24H26V25H25zM26,24H27V25H26zM27,24H28V25H27zM28,24H29V25H28zM29,24H30V25H29zM31,24H32V25H31zM12,25H13V26H12zM13,25H14V26H13zM14,25H15V26H14zM15,25H16V26H15zM16,25H17V26H16zM21,25H22V26H21zM24,25H25V26H24zM28,25H29V26H28zM30,25H31V26H30zM32,25H33V26H32zM4,26H5V27H4zM5,26H6V27H5zM6,26H7V27H6zM7,26H8V27H7zM8,26H9V27H8zM9,26H10V27H9zM10,26H11V27H10zM12,26H13V27H12zM13,26H14V27H13zM14,26H15V27H14zM15,26H16V27H15zM18,26H19V27H18zM23,26H24V27H23zM24,26H25V27H24zM26,26H27V27H26zM28,26H29V27H28zM32,26H33V27H32zM4,27H5V28H4zM10,27H11V28H10zM12,27H13V28H12zM14,27H15V28H14zM17,27H18V28H17zM18,27H19V28H18zM19,27H20V28H19zM21,27H22V28H21zM23,27H24V28H23zM24,27H25V28H24zM28,27H29V28H28zM29,27H30V28H29zM31,27H32V28H31zM4,28H5V29H4zM6,28H7V29H6zM7,28H8V29H7zM8,28H9V29H8zM10,28H11V29H10zM12,28H13V29H12zM13,28H14V29H13zM14,28H15V29H14zM18,28H19V29H18zM20,28H21V29H20zM23,28H24V29H23zM24,28H25V29H24zM25,28H26V29H25zM26,28H27V29H26zM27,28H28V29H27zM28,28H29V29H28zM31,28H32V29H31zM32,28H33V29H32zM4,29H5V30H4zM6,29H7V30H6zM7,29H8V30H7zM8,29H9V30H8zM10,29H11V30H10zM14,29H15V30H14zM15,29H16V30H15zM16,29H17V30H16zM17,29H18V30H17zM19,29H20V30H19zM20,29H21V30H20zM21,29H22V30H21zM22,29H23V30H22zM27,29H28V30H27zM31,29H32V30H31zM4,30H5V31H4zM6,30H7V31H6zM7,30H8V31H7zM8,30H9V31H8zM10,30H11V31H10zM13,30H14V31H13zM14,30H15V31H14zM16,30H17V31H16zM17,30H18V31H17zM18,30H19V31H18zM19,30H20V31H19zM20,30H21V31H20zM21,30H22V31H21zM22,30H23V31H22zM23,30H24V31H23zM24,30H25V31H24zM25,30H26V31H25zM29,30H30V31H29zM31,30H32V31H31zM32,30H33V31H32zM4,31H5V32H4zM10,31H11V32H10zM16,31H17V32H16zM17,31H18V32H17zM24,31H25V32H24zM27,31H28V32H27zM29,31H30V32H29zM31,31H32V32H31zM32,31H33V32H32zM4,32H5V33H4zM5,32H6V33H5zM6,32H7V33H6zM7,32H8V33H7zM8,32H9V33H8zM9,32H10V33H9zM10,32H11V33H10zM15,32H16V33H15zM16,32H17V33H16zM19,32H20V33H19zM20,32H21V33H20zM22,32H23V33H22zM24,32H25V33H24zM26,32H27V33H26zM28,32H29V33H28zM31,32H32V33H31z" id="qr-path" fill="white" fill-opacity="1" fill-rule="nonzero" stroke="none"/><svg id="Layer_1" version="1.1" viewBox="0 0 389.3 393.1" x="14.8" y="14.8" width="7.4" height="7.4">
  <!-- Generator: Adobe Illustrator 29.0.1, SVG Export Plug-In . SVG Version: 2.1.0 Build 192)  -->
  <defs>
    <style>
      .st0, .st1, .st2, .st3, .st4, .st5, .st6, .st7 {
        stroke: #34324c;
        stroke-miterlimit: 10;
      }

      .st0, .st7 {
        stroke-width: 7.5px;
      }

      .st0, .st8 {
        fill: #34324c;
      }

      .st1 {
        stroke-width: 7px;
      }

      .st1, .st2, .st6, .st7 {
        fill: none;
      }

      .st2, .st3 {
        stroke-width: 25px;
      }

      .st3, .st4, .st5 {
        fill: #fff;
      }

      .st4, .st6 {
        stroke-width: 20px;
      }

      .st5 {
        stroke-width: 15px;
      }

      .st9 {
        fill: #8ccd10;
      }
    </style>
  </defs>
  <g>
    <circle class="st4" cx="65" cy="65" r="55"/>
    <circle class="st4" cx="324.3" cy="65" r="55"/>
    <circle class="st0" cx="65" cy="65" r="20"/>
    <circle class="st0" cx="324.3" cy="65" r="20"/>
    <ellipse class="st3" cx="195" cy="205.6" rx="169.6" ry="175"/>
    <g>
      <circle class="st6" cx="195" cy="223.4" r="62.5"/>
      <g>
        <path class="st2" d="M195,230.7c0,8.2,0,14.9,0,14.9s0-6.7,0-14.9,0-14.9,0-14.9,0,6.7,0,14.9Z"/>
        <g>
          <path class="st8" d="M201.5,223.4c-3.8,4-9.9,4-13.7,0l-20.1-21.4c-3.8-4-2.3-7.3,3.2-7.3h47.4c5.5,0,6.9,3.2,3.2,7.2l-20,21.4Z"/>
          <path class="st1" d="M201.5,223.4c-3.8,4-9.9,4-13.7,0l-20.1-21.4c-3.8-4-2.3-7.3,3.2-7.3h47.4c5.5,0,6.9,3.2,3.2,7.2l-20,21.4Z"/>
        </g>
      </g>
    </g>
    <rect class="st5" x="17.5" y="245.5" width="350" height="96.6" rx="48.2" ry="48.2"/>
    <g>
      <line class="st7" x1="325.8" y1="305.9" x2="338.5" y2="318.9"/>
      <circle class="st7" cx="316.9" cy="293.8" r="15"/>
    </g>
    <circle class="st0" cx="260" cy="136.2" r="15"/>
    <circle class="st0" cx="126.5" cy="136.2" r="15"/>
  </g>
  <g>
    <path class="st9" d="M124.5,312.4h-8l-14.4-22c-.4-.7-.8-1.2-1.1-1.7-.3-.5-.5-.9-.7-1.2h0c0,.6.1,1.4.1,2.3,0,.9,0,2.1,0,3.3v19.2h-7.4v-35h8.5l13.9,21.3c.3.5.6.9.9,1.4.3.5.6,1,.8,1.4h0c0-.4-.1-1-.1-1.8,0-.8,0-1.8,0-3v-19.4h7.4v35Z"/>
    <path class="st8" d="M128.8,312.4l12.7-35h9.4l12.5,35h-8.6l-2.4-7.3h-12.7l-2.3,7.3h-8.5ZM141.3,298.9h9.2l-3.9-12.2c-.1-.5-.3-.9-.4-1.2,0-.3-.2-.8-.2-1.3h-.2c0,.5-.2.9-.3,1.3,0,.4-.2.8-.4,1.2l-3.9,12.3Z"/>
    <path class="st8" d="M193.4,277.4l-12.1,35h-8.9l-11.9-35h8.5l7.3,24.4c.2.7.3,1.3.5,1.9.1.6.2,1.1.2,1.6h.1c0-.5.2-1.1.3-1.7.1-.6.3-1.2.5-1.9l7.3-24.3h8.3Z"/>
    <path class="st8" d="M197.6,312.4v-35h12.7c3.9,0,6.9.7,9,2.2,2.1,1.5,3.1,3.6,3.1,6.3s-.6,3.5-1.7,4.9c-1.1,1.4-2.6,2.4-4.3,2.9h0c2.2.4,4,1.3,5.4,2.8,1.3,1.5,2,3.3,2,5.4,0,3.2-1.1,5.8-3.4,7.6-2.3,1.9-5.4,2.8-9.4,2.8h-13.5ZM205.5,283.2v8.5h3.5c1.6,0,2.9-.4,3.8-1.2.9-.8,1.4-1.9,1.4-3.2s-.5-2.4-1.4-3.1c-1-.7-2.4-1-4.3-1h-3ZM205.5,297.6v9h4.3c1.8,0,3.3-.4,4.3-1.3,1-.8,1.5-2,1.5-3.5s-.5-2.4-1.5-3.1c-1-.8-2.4-1.1-4.3-1.1h-4.3Z"/>
    <path class="st9" d="M225.9,312.4l12.7-35h9.4l12.5,35h-8.6l-2.4-7.3h-12.7l-2.3,7.3h-8.5ZM237.5,274.1c-1.1,0-2-.3-2.7-1-.7-.6-1-1.4-1-2.4s.4-1.8,1.1-2.4c.7-.6,1.6-.9,2.7-.9s2,.3,2.7.9c.7.6,1,1.4,1,2.4s-.3,1.8-1,2.4c-.7.6-1.6.9-2.7.9ZM238.5,298.9h9.2l-3.9-12.2c-.1-.5-.3-.9-.4-1.2,0-.3-.2-.8-.2-1.3h-.2c0,.5-.2.9-.3,1.3,0,.4-.2.8-.4,1.2l-3.9,12.3ZM248.7,274.1c-1.1,0-2-.3-2.7-1-.7-.6-1-1.4-1-2.4s.3-1.8,1-2.4c.7-.6,1.6-.9,2.7-.9s2,.3,2.7.9c.7.6,1.1,1.4,1.1,2.4s-.4,1.8-1,2.4c-.7.6-1.6.9-2.7.9Z"/>
    <path class="st9" d="M293.3,312.4h-8.9l-4.7-8.6c-.7-1.4-1.5-2.5-2.3-3.2-.8-.7-1.6-1.1-2.6-1.2h-2.1v13h-7.9v-35h12.5c4.2,0,7.4.8,9.6,2.5,2.1,1.7,3.2,4.1,3.2,7.4s-.7,4.3-2.1,6c-1.4,1.7-3.2,2.9-5.6,3.7h0c1,.4,2,1.1,2.9,2.1.9,1,1.7,2.1,2.3,3.2l5.6,10ZM272.7,283.3v10.1h3.4c1.7,0,3.1-.5,4.1-1.5s1.5-2.3,1.5-3.8-.5-2.8-1.4-3.6c-.9-.8-2.3-1.2-4.1-1.2h-3.6Z"/>
  </g>
  <rect class="st8" x="74.6" y="301.3" width="11.1" height="11.1"/>
</svg></svg>