<svg xmlns="http://www.w3.org/2000/svg" width="37mm" height="37mm" version="1.1" viewBox="0 0 37 37"><path d="M4,4H5V5H4zM5,4H6V5H5zM6,4H7V5H6zM7,4H8V5H7zM8,4H9V5H8zM9,4H10V5H9zM10,4H11V5H10zM12,4H13V5H12zM14,4H15V5H14zM15,4H16V5H15zM16,4H17V5H16zM18,4H19V5H18zM19,4H20V5H19zM20,4H21V5H20zM22,4H23V5H22zM24,4H25V5H24zM26,4H27V5H26zM27,4H28V5H27zM28,4H29V5H28zM29,4H30V5H29zM30,4H31V5H30zM31,4H32V5H31zM32,4H33V5H32zM4,5H5V6H4zM10,5H11V6H10zM12,5H13V6H12zM15,5H16V6H15zM17,5H18V6H17zM22,5H23V6H22zM24,5H25V6H24zM26,5H27V6H26zM32,5H33V6H32zM4,6H5V7H4zM6,6H7V7H6zM7,6H8V7H7zM8,6H9V7H8zM10,6H11V7H10zM13,6H14V7H13zM17,6H18V7H17zM19,6H20V7H19zM21,6H22V7H21zM24,6H25V7H24zM26,6H27V7H26zM28,6H29V7H28zM29,6H30V7H29zM30,6H31V7H30zM32,6H33V7H32zM4,7H5V8H4zM6,7H7V8H6zM7,7H8V8H7zM8,7H9V8H8zM10,7H11V8H10zM12,7H13V8H12zM13,7H14V8H13zM14,7H15V8H14zM15,7H16V8H15zM16,7H17V8H16zM17,7H18V8H17zM19,7H20V8H19zM20,7H21V8H20zM24,7H25V8H24zM26,7H27V8H26zM28,7H29V8H28zM29,7H30V8H29zM30,7H31V8H30zM32,7H33V8H32zM4,8H5V9H4zM6,8H7V9H6zM7,8H8V9H7zM8,8H9V9H8zM10,8H11V9H10zM12,8H13V9H12zM14,8H15V9H14zM15,8H16V9H15zM18,8H19V9H18zM19,8H20V9H19zM20,8H21V9H20zM21,8H22V9H21zM22,8H23V9H22zM26,8H27V9H26zM28,8H29V9H28zM29,8H30V9H29zM30,8H31V9H30zM32,8H33V9H32zM4,9H5V10H4zM10,9H11V10H10zM12,9H13V10H12zM14,9H15V10H14zM20,9H21V10H20zM21,9H22V10H21zM22,9H23V10H22zM23,9H24V10H23zM26,9H27V10H26zM32,9H33V10H32zM4,10H5V11H4zM5,10H6V11H5zM6,10H7V11H6zM7,10H8V11H7zM8,10H9V11H8zM9,10H10V11H9zM10,10H11V11H10zM12,10H13V11H12zM14,10H15V11H14zM16,10H17V11H16zM18,10H19V11H18zM20,10H21V11H20zM22,10H23V11H22zM24,10H25V11H24zM26,10H27V11H26zM27,10H28V11H27zM28,10H29V11H28zM29,10H30V11H29zM30,10H31V11H30zM31,10H32V11H31zM32,10H33V11H32zM15,11H16V12H15zM17,11H18V12H17zM18,11H19V12H18zM20,11H21V12H20zM23,11H24V12H23zM24,11H25V12H24zM7,12H8V13H7zM10,12H11V13H10zM17,12H18V13H17zM19,12H20V13H19zM21,12H22V13H21zM27,12H28V13H27zM28,12H29V13H28zM29,12H30V13H29zM31,12H32V13H31zM32,12H33V13H32zM4,13H5V14H4zM8,13H9V14H8zM9,13H10V14H9zM12,13H13V14H12zM13,13H14V14H13zM19,13H20V14H19zM20,13H21V14H20zM21,13H22V14H21zM24,13H25V14H24zM25,13H26V14H25zM26,13H27V14H26zM29,13H30V14H29zM30,13H31V14H30zM32,13H33V14H32zM4,14H5V15H4zM8,14H9V15H8zM10,14H11V15H10zM11,14H12V15H11zM12,14H13V15H12zM13,14H14V15H13zM14,14H15V15H14zM15,14H16V15H15zM19,14H20V15H19zM23,14H24V15H23zM26,14H27V15H26zM29,14H30V15H29zM30,14H31V15H30zM31,14H32V15H31zM7,15H8V16H7zM11,15H12V16H11zM14,15H15V16H14zM15,15H16V16H15zM16,15H17V16H16zM17,15H18V16H17zM18,15H19V16H18zM19,15H20V16H19zM22,15H23V16H22zM25,15H26V16H25zM26,15H27V16H26zM27,15H28V16H27zM30,15H31V16H30zM31,15H32V16H31zM6,16H7V17H6zM7,16H8V17H7zM10,16H11V17H10zM11,16H12V17H11zM13,16H14V17H13zM14,16H15V17H14zM15,16H16V17H15zM16,16H17V17H16zM18,16H19V17H18zM23,16H24V17H23zM26,16H27V17H26zM27,16H28V17H27zM4,17H5V18H4zM5,17H6V18H5zM8,17H9V18H8zM11,17H12V18H11zM12,17H13V18H12zM13,17H14V18H13zM14,17H15V18H14zM15,17H16V18H15zM16,17H17V18H16zM18,17H19V18H18zM20,17H21V18H20zM21,17H22V18H21zM23,17H24V18H23zM24,17H25V18H24zM25,17H26V18H25zM27,17H28V18H27zM29,17H30V18H29zM31,17H32V18H31zM8,18H9V19H8zM9,18H10V19H9zM10,18H11V19H10zM12,18H13V19H12zM14,18H15V19H14zM17,18H18V19H17zM18,18H19V19H18zM20,18H21V19H20zM21,18H22V19H21zM24,18H25V19H24zM26,18H27V19H26zM31,18H32V19H31zM32,18H33V19H32zM4,19H5V20H4zM5,19H6V20H5zM9,19H10V20H9zM11,19H12V20H11zM13,19H14V20H13zM16,19H17V20H16zM18,19H19V20H18zM21,19H22V20H21zM22,19H23V20H22zM24,19H25V20H24zM25,19H26V20H25zM26,19H27V20H26zM27,19H28V20H27zM32,19H33V20H32zM4,20H5V21H4zM5,20H6V21H5zM9,20H10V21H9zM10,20H11V21H10zM11,20H12V21H11zM15,20H16V21H15zM16,20H17V21H16zM19,20H20V21H19zM23,20H24V21H23zM24,20H25V21H24zM27,20H28V21H27zM6,21H7V22H6zM7,21H8V22H7zM8,21H9V22H8zM9,21H10V22H9zM11,21H12V22H11zM14,21H15V22H14zM15,21H16V22H15zM16,21H17V22H16zM22,21H23V22H22zM25,21H26V22H25zM26,21H27V22H26zM27,21H28V22H27zM29,21H30V22H29zM30,21H31V22H30zM31,21H32V22H31zM32,21H33V22H32zM4,22H5V23H4zM6,22H7V23H6zM7,22H8V23H7zM8,22H9V23H8zM10,22H11V23H10zM11,22H12V23H11zM12,22H13V23H12zM14,22H15V23H14zM15,22H16V23H15zM18,22H19V23H18zM19,22H20V23H19zM20,22H21V23H20zM25,22H26V23H25zM27,22H28V23H27zM28,22H29V23H28zM29,22H30V23H29zM30,22H31V23H30zM31,22H32V23H31zM32,22H33V23H32zM6,23H7V24H6zM8,23H9V24H8zM11,23H12V24H11zM12,23H13V24H12zM13,23H14V24H13zM14,23H15V24H14zM19,23H20V24H19zM22,23H23V24H22zM23,23H24V24H23zM27,23H28V24H27zM29,23H30V24H29zM4,24H5V25H4zM8,24H9V25H8zM10,24H11V25H10zM11,24H12V25H11zM14,24H15V25H14zM15,24H16V25H15zM16,24H17V25H16zM20,24H21V25H20zM24,24H25V25H24zM25,24H26V25H25zM26,24H27V25H26zM27,24H28V25H27zM28,24H29V25H28zM29,24H30V25H29zM30,24H31V25H30zM31,24H32V25H31zM32,24H33V25H32zM12,25H13V26H12zM13,25H14V26H13zM14,25H15V26H14zM17,25H18V26H17zM18,25H19V26H18zM19,25H20V26H19zM22,25H23V26H22zM24,25H25V26H24zM28,25H29V26H28zM31,25H32V26H31zM32,25H33V26H32zM4,26H5V27H4zM5,26H6V27H5zM6,26H7V27H6zM7,26H8V27H7zM8,26H9V27H8zM9,26H10V27H9zM10,26H11V27H10zM14,26H15V27H14zM16,26H17V27H16zM17,26H18V27H17zM19,26H20V27H19zM20,26H21V27H20zM22,26H23V27H22zM24,26H25V27H24zM26,26H27V27H26zM28,26H29V27H28zM29,26H30V27H29zM30,26H31V27H30zM31,26H32V27H31zM4,27H5V28H4zM10,27H11V28H10zM13,27H14V28H13zM15,27H16V28H15zM18,27H19V28H18zM19,27H20V28H19zM20,27H21V28H20zM21,27H22V28H21zM24,27H25V28H24zM28,27H29V28H28zM30,27H31V28H30zM31,27H32V28H31zM32,27H33V28H32zM4,28H5V29H4zM6,28H7V29H6zM7,28H8V29H7zM8,28H9V29H8zM10,28H11V29H10zM13,28H14V29H13zM14,28H15V29H14zM16,28H17V29H16zM18,28H19V29H18zM20,28H21V29H20zM22,28H23V29H22zM24,28H25V29H24zM25,28H26V29H25zM26,28H27V29H26zM27,28H28V29H27zM28,28H29V29H28zM29,28H30V29H29zM31,28H32V29H31zM4,29H5V30H4zM6,29H7V30H6zM7,29H8V30H7zM8,29H9V30H8zM10,29H11V30H10zM12,29H13V30H12zM13,29H14V30H13zM14,29H15V30H14zM15,29H16V30H15zM18,29H19V30H18zM19,29H20V30H19zM20,29H21V30H20zM23,29H24V30H23zM24,29H25V30H24zM25,29H26V30H25zM26,29H27V30H26zM28,29H29V30H28zM29,29H30V30H29zM32,29H33V30H32zM4,30H5V31H4zM6,30H7V31H6zM7,30H8V31H7zM8,30H9V31H8zM10,30H11V31H10zM14,30H15V31H14zM17,30H18V31H17zM18,30H19V31H18zM19,30H20V31H19zM21,30H22V31H21zM23,30H24V31H23zM24,30H25V31H24zM28,30H29V31H28zM32,30H33V31H32zM4,31H5V32H4zM10,31H11V32H10zM14,31H15V32H14zM15,31H16V32H15zM23,31H24V32H23zM24,31H25V32H24zM26,31H27V32H26zM27,31H28V32H27zM31,31H32V32H31zM4,32H5V33H4zM5,32H6V33H5zM6,32H7V33H6zM7,32H8V33H7zM8,32H9V33H8zM9,32H10V33H9zM10,32H11V33H10zM16,32H17V33H16zM20,32H21V33H20zM22,32H23V33H22zM24,32H25V33H24zM26,32H27V33H26zM28,32H29V33H28zM29,32H30V33H29zM31,32H32V33H31z" id="qr-path" fill="#000000" fill-opacity="1" fill-rule="nonzero" stroke="none"/><svg id="Layer_1" version="1.1" viewBox="0 0 389.3 393.1" x="14.8" y="14.8" width="7.4" height="7.4">
  <!-- Generator: Adobe Illustrator 29.0.1, SVG Export Plug-In . SVG Version: 2.1.0 Build 192)  -->
  <defs>
    <style>
      .st0, .st1, .st2, .st3, .st4, .st5, .st6, .st7 {
        stroke: #34324c;
        stroke-miterlimit: 10;
      }

      .st0, .st7 {
        stroke-width: 7.5px;
      }

      .st0, .st8 {
        fill: #34324c;
      }

      .st1 {
        stroke-width: 7px;
      }

      .st1, .st2, .st6, .st7 {
        fill: none;
      }

      .st2, .st3 {
        stroke-width: 25px;
      }

      .st3, .st4, .st5 {
        fill: #fff;
      }

      .st4, .st6 {
        stroke-width: 20px;
      }

      .st5 {
        stroke-width: 15px;
      }

      .st9 {
        fill: #8ccd10;
      }
    </style>
  </defs>
  <g>
    <circle class="st4" cx="65" cy="65" r="55"/>
    <circle class="st4" cx="324.3" cy="65" r="55"/>
    <circle class="st0" cx="65" cy="65" r="20"/>
    <circle class="st0" cx="324.3" cy="65" r="20"/>
    <ellipse class="st3" cx="195" cy="205.6" rx="169.6" ry="175"/>
    <g>
      <circle class="st6" cx="195" cy="223.4" r="62.5"/>
      <g>
        <path class="st2" d="M195,230.7c0,8.2,0,14.9,0,14.9s0-6.7,0-14.9,0-14.9,0-14.9,0,6.7,0,14.9Z"/>
        <g>
          <path class="st8" d="M201.5,223.4c-3.8,4-9.9,4-13.7,0l-20.1-21.4c-3.8-4-2.3-7.3,3.2-7.3h47.4c5.5,0,6.9,3.2,3.2,7.2l-20,21.4Z"/>
          <path class="st1" d="M201.5,223.4c-3.8,4-9.9,4-13.7,0l-20.1-21.4c-3.8-4-2.3-7.3,3.2-7.3h47.4c5.5,0,6.9,3.2,3.2,7.2l-20,21.4Z"/>
        </g>
      </g>
    </g>
    <rect class="st5" x="17.5" y="245.5" width="350" height="96.6" rx="48.2" ry="48.2"/>
    <g>
      <line class="st7" x1="325.8" y1="305.9" x2="338.5" y2="318.9"/>
      <circle class="st7" cx="316.9" cy="293.8" r="15"/>
    </g>
    <circle class="st0" cx="260" cy="136.2" r="15"/>
    <circle class="st0" cx="126.5" cy="136.2" r="15"/>
  </g>
  <g>
    <path class="st9" d="M124.5,312.4h-8l-14.4-22c-.4-.7-.8-1.2-1.1-1.7-.3-.5-.5-.9-.7-1.2h0c0,.6.1,1.4.1,2.3,0,.9,0,2.1,0,3.3v19.2h-7.4v-35h8.5l13.9,21.3c.3.5.6.9.9,1.4.3.5.6,1,.8,1.4h0c0-.4-.1-1-.1-1.8,0-.8,0-1.8,0-3v-19.4h7.4v35Z"/>
    <path class="st8" d="M128.8,312.4l12.7-35h9.4l12.5,35h-8.6l-2.4-7.3h-12.7l-2.3,7.3h-8.5ZM141.3,298.9h9.2l-3.9-12.2c-.1-.5-.3-.9-.4-1.2,0-.3-.2-.8-.2-1.3h-.2c0,.5-.2.9-.3,1.3,0,.4-.2.8-.4,1.2l-3.9,12.3Z"/>
    <path class="st8" d="M193.4,277.4l-12.1,35h-8.9l-11.9-35h8.5l7.3,24.4c.2.7.3,1.3.5,1.9.1.6.2,1.1.2,1.6h.1c0-.5.2-1.1.3-1.7.1-.6.3-1.2.5-1.9l7.3-24.3h8.3Z"/>
    <path class="st8" d="M197.6,312.4v-35h12.7c3.9,0,6.9.7,9,2.2,2.1,1.5,3.1,3.6,3.1,6.3s-.6,3.5-1.7,4.9c-1.1,1.4-2.6,2.4-4.3,2.9h0c2.2.4,4,1.3,5.4,2.8,1.3,1.5,2,3.3,2,5.4,0,3.2-1.1,5.8-3.4,7.6-2.3,1.9-5.4,2.8-9.4,2.8h-13.5ZM205.5,283.2v8.5h3.5c1.6,0,2.9-.4,3.8-1.2.9-.8,1.4-1.9,1.4-3.2s-.5-2.4-1.4-3.1c-1-.7-2.4-1-4.3-1h-3ZM205.5,297.6v9h4.3c1.8,0,3.3-.4,4.3-1.3,1-.8,1.5-2,1.5-3.5s-.5-2.4-1.5-3.1c-1-.8-2.4-1.1-4.3-1.1h-4.3Z"/>
    <path class="st9" d="M225.9,312.4l12.7-35h9.4l12.5,35h-8.6l-2.4-7.3h-12.7l-2.3,7.3h-8.5ZM237.5,274.1c-1.1,0-2-.3-2.7-1-.7-.6-1-1.4-1-2.4s.4-1.8,1.1-2.4c.7-.6,1.6-.9,2.7-.9s2,.3,2.7.9c.7.6,1,1.4,1,2.4s-.3,1.8-1,2.4c-.7.6-1.6.9-2.7.9ZM238.5,298.9h9.2l-3.9-12.2c-.1-.5-.3-.9-.4-1.2,0-.3-.2-.8-.2-1.3h-.2c0,.5-.2.9-.3,1.3,0,.4-.2.8-.4,1.2l-3.9,12.3ZM248.7,274.1c-1.1,0-2-.3-2.7-1-.7-.6-1-1.4-1-2.4s.3-1.8,1-2.4c.7-.6,1.6-.9,2.7-.9s2,.3,2.7.9c.7.6,1.1,1.4,1.1,2.4s-.4,1.8-1,2.4c-.7.6-1.6.9-2.7.9Z"/>
    <path class="st9" d="M293.3,312.4h-8.9l-4.7-8.6c-.7-1.4-1.5-2.5-2.3-3.2-.8-.7-1.6-1.1-2.6-1.2h-2.1v13h-7.9v-35h12.5c4.2,0,7.4.8,9.6,2.5,2.1,1.7,3.2,4.1,3.2,7.4s-.7,4.3-2.1,6c-1.4,1.7-3.2,2.9-5.6,3.7h0c1,.4,2,1.1,2.9,2.1.9,1,1.7,2.1,2.3,3.2l5.6,10ZM272.7,283.3v10.1h3.4c1.7,0,3.1-.5,4.1-1.5s1.5-2.3,1.5-3.8-.5-2.8-1.4-3.6c-.9-.8-2.3-1.2-4.1-1.2h-3.6Z"/>
  </g>
  <rect class="st8" x="74.6" y="301.3" width="11.1" height="11.1"/>
</svg></svg>